<svg viewBox="0 0 242.1 124" height="50">
  <g>
  <title>Layer 1</title>
  <path fill="none" stroke="#000" id="svg_8" d="m107.66667,33.74359c0,0.51282 0,1.02564 0,1.53846c0,0.51282 0,1.02564 0,2.5641c0,1.02564 0,2.05128 0,3.58974c0,1.02564 0,2.5641 0,4.10256c0,1.02564 -0.49873,2.38333 -1.02564,4.61539c-0.35346,1.4973 -1.09964,3.55597 -1.53846,4.61538c-0.62059,1.49824 -1.27501,2.47372 -1.53847,3.58974c-0.35347,1.4973 0.03689,2.36464 -1.02564,3.58974c-0.75132,0.86628 -1.07867,2.00325 -1.53846,2.5641c-1.17226,1.42991 -1.30282,2.07872 -1.53846,3.07693c-0.26346,1.11603 -0.86797,2.14667 -1.53846,3.07692c-0.42406,0.58835 -0.51283,1.53846 -0.51283,2.05128c0,0.51282 -0.12033,1.10371 -0.51282,2.05128c-0.27753,0.67004 -1.02564,1.53847 -1.02564,2.05128c0,1.02564 -0.51282,1.53846 -0.51282,2.05128c0,0.51282 0,1.02564 0,1.53846c0,0.51282 0,0.51282 0,1.02564c0,0.51282 0.66302,0.15019 1.02564,0.51282c0.36263,0.36263 0,1.02564 0.51282,1.02564c0.51282,0 0.51282,0 0.51282,0c0.51283,0 0.66302,0.66302 1.02564,1.02564c0.36263,0.36263 1.02564,0 1.02564,0c0.51282,0.51282 1.10371,0.12032 2.05128,0.51282c0.67003,0.27754 1.53846,0.51283 2.5641,0.51283c1.53846,0 3.60961,0.26639 5.1282,0.51282c1.60074,0.25977 3.60961,0.26638 5.1282,0.51282c1.60074,0.25977 3.07692,0.51283 4.10256,0.51283c1.02564,0 2.05128,0.51282 3.07693,0.51282c1.02563,0 2.5641,0 3.58974,0c1.02564,0 2.60526,-0.15936 4.10256,-0.51282c1.11604,-0.26346 3.01465,-1.27869 4.61539,-1.53846c1.01241,-0.16429 2.05128,0 3.07692,0c1.02565,0 1.5775,-0.31658 2.05128,-0.51283c0.67003,-0.27753 1.02565,-1.02564 1.53847,-1.53846c0.51282,-0.51282 1.77374,-1.38124 2.05128,-2.05128c0.19624,-0.47378 0.51282,-1.53846 1.02563,-2.05128c0.51282,-0.51283 1.02565,-1.53846 1.02565,-2.05128c0,-0.51282 0,-1.53846 0,-2.05128c0,-0.51282 0,-1.02563 0,-1.53846c0,-0.51282 0,-1.02564 0,-1.53846c0,-0.51282 0.36263,-0.66302 0,-1.02564c-0.36263,-0.36263 -0.35562,-1.26093 -1.02565,-1.53846c-0.47379,-0.19624 -0.66302,-0.1502 -1.02563,-0.51282c-0.36263,-0.36263 0.26961,-1.10223 0,-1.53847c-0.60286,-0.97545 -1.68867,-0.1502 -2.05128,-0.51282c-0.72523,-0.72523 -0.5909,-1.14596 -1.53847,-1.53846c-0.67003,-0.27754 -0.52654,-0.395 -1.02563,-0.51283c-1.11603,-0.26346 -1.17584,-0.66302 -1.53847,-1.02564c-0.72523,-0.72523 -1.53845,-0.51282 -2.05128,-0.51282c0,0 -1.02563,-0.51282 -1.53845,-0.51282c-0.51282,0 -1.02565,0 -2.05128,0c-0.51282,0 -0.51282,0 -1.53847,0c-1.02563,0 -1.02563,-0.51282 -2.05128,-0.51282c-1.02564,0 -1.02564,0 -2.05128,0c-0.51282,0 -1.02563,0 -1.02563,0c-0.51283,0 -1.02564,0 -1.53847,0c-0.51282,0 -1.02563,0 -1.53846,0c-0.51282,0 -1.02564,0 -1.02564,0c-0.51282,0 -1.02563,0 -1.53846,0c-0.51282,0 -0.51282,0.51282 -1.02564,0.51282c-0.51282,0 -1.02563,0 -1.53846,0c0,0 -0.1502,0.1502 -0.51282,0.51282c-0.36263,0.36262 -0.15021,0.66302 -0.51283,1.02564c-0.36262,0.36262 0,0.51282 0.51283,0.51282c0.51282,0 0.51282,0 0.51282,0c0.51283,0 1.17584,-0.36262 1.53846,0c0.36263,0.36263 0.35561,0.74811 1.02564,1.02564c0.47379,0.19625 0.51283,0.51283 1.02564,0.51283c0.51282,0 0.66302,0.1502 1.02564,0.51282c0.72523,0.72523 1.53846,0 2.05128,0c1.02564,0 1.55219,0.395 2.05128,0.51282c1.11603,0.26346 1.9609,0.76218 3.07693,1.02564c0.4991,0.11782 1.02563,0.51283 2.05128,0.51283c0.51282,0 0.66302,-0.36262 1.02563,0c0.36261,0.36262 0.66302,0.1502 1.02563,0.51282c0.36261,0.36262 0.51283,0.51282 0.51283,1.02564c0,0 0,0.51282 0.51282,0.51282c0.51282,0 0.74809,0.35561 1.02563,1.02564c0.19624,0.47378 0.51282,0.51282 0.51282,1.02564c0,0 0,0.51282 0,1.02564c0,0.51282 0,1.02563 0,1.02563c0,0.51283 0,1.02564 0,1.53847c0,0 0,0.51282 0,0.51282c-0.51282,0 -1.02563,0 -1.53845,0c-0.51282,0 -0.51282,0.51283 -0.51282,0.51283c-0.51283,0.51282 -1.53847,0.51282 -2.05128,0.51282c0,0 -0.35561,0.23528 -1.02565,0.51282c-0.94757,0.39249 -0.93524,0.24937 -2.05128,0.51283c-0.99821,0.23565 -1.02564,0 -2.05128,0c-1.02563,0 -2.05128,0 -3.07692,0c-1.02564,0 -2.05128,0 -3.07692,0c-1.02564,0 -1.02564,0 -2.05128,0c-0.51282,0 -1.02564,0 -1.02564,0c-0.51282,0 -1.02564,-0.51283 -1.53846,-0.51283c-0.51283,0 -1.02564,0 -1.53846,0c-1.02564,0 -1.02564,-0.51282 -1.53847,-0.51282c-0.51282,0 -0.66302,-0.1502 -1.02563,-0.51282c-0.36263,-0.36263 -0.51283,0 -1.02564,0c-0.51283,0 -0.51283,-0.51283 -1.02564,-0.51283c-0.51282,0 -0.51282,-0.51282 -0.51282,-1.02564c0,-0.51282 0,-1.02564 0,-1.02564c0,-0.51282 0,-1.02563 0,-1.53846c0,-0.51282 0.51282,-0.51282 0.51282,-0.51282c0,-0.51283 0.7481,-0.35561 1.02564,-1.02564c0.19625,-0.47378 0.51282,-0.51282 0.51282,-1.02564c0,0 0,-0.51282 0,-1.02564c0,-0.51282 0.51283,-0.51282 0.51283,-1.02563c0,0 0.31657,-0.55186 0.51282,-1.02564c0.27753,-0.67004 0.66302,-0.66302 1.02564,-1.02564c0.36262,-0.36262 0,-1.02564 0,-1.02564c0,-0.51282 0.51282,-1.02564 0.51282,-1.02564c0,-0.51282 0.31657,-0.55185 0.51283,-1.02564c0.27753,-0.67003 1.02563,-0.51282 1.02563,-1.02564c0,0 -0.19625,-0.55186 0,-1.02564c0.27754,-0.67004 0.51283,-1.02564 0.51283,-1.02564c0.51282,0 0.66302,-0.1502 1.02564,-0.51282c0.36262,-0.36262 0.1502,-0.66302 0.51282,-1.02564c0.36262,-0.36262 0,-0.51282 0,-1.02564c0,-0.51282 0,-1.02564 0,-1.02564c0,-0.51282 0.1502,-0.1502 0.51283,-0.51282c0.36262,-0.36262 0.23528,-0.86843 0.51282,-1.53846c0.19625,-0.47379 0.51282,-0.51282 0.51282,-1.02564c0,-0.51282 -0.36262,-1.17584 0,-1.53846c0.36263,-0.36262 0.51283,0 0.51283,-0.51282c0,-0.51282 0.1502,-0.66302 0.51282,-1.02564c0.36262,-0.36262 0,-0.51282 0,-1.02564c0,-0.51282 0.51283,-1.02564 0.51283,-1.53846c0,0 0.51282,-0.51282 0.51282,-1.02564c0,-0.51282 0,-1.02564 0,-1.02564c0,-0.51282 0,-1.02564 0,-1.53846c0,-0.51282 0,-0.51282 0,-1.02564c0,-0.51282 0,-1.02564 0,-1.53846c0,0 0,-0.51282 0,-1.02564c0,-0.51282 -0.51282,-0.51282 -0.51282,-1.02564c0,0 0.36262,-0.66302 0,-1.02564c-0.36263,-0.36262 -0.15021,-0.66302 -0.51283,-1.02564c-0.36262,-0.36262 -0.51282,0 -0.51282,0c0,-0.51282 -0.15021,-0.66302 -0.51283,-1.02564c-0.36262,-0.36262 -1.02563,-0.51282 -1.53846,-1.02564c0,0 -1.02564,0 -1.53846,0c-0.51283,0 -0.5909,0.39249 -1.53846,0c-0.67004,-0.27754 -1.02564,-0.51282 -2.05128,-0.51282c-0.51282,0 -1.02564,0 -1.02564,0c-0.51282,0 -1.02564,0 -1.53846,0c-0.51282,0 -0.51282,0 -1.02564,0c-0.51282,0 -0.51282,0.51282 -1.02564,0.51282c-0.51282,0 -0.51282,0 -1.02563,0c-0.51283,0 0,0 0.51282,0l0,0"/>
 </g>
</svg>