<svg viewBox="0 0 242.1 124" height="50">
 <g>
  <title>Layer 1</title>
  <path d="m97.2,40.8c0,0 1,0 2,0c2,0 4,-1 6,-1c2,0 4,0 5,0c2,0 3,0 3,0c1,0 2,0 3,0c1,0 1.29289,0.29289 2,1c0.70711,0.70711 1,1 3,2c0,0 0.29289,-0.70711 1,0c0.70711,0.70711 0.29289,1.29289 1,2c0.70711,0.70711 1,2 1,2c1,1 1,2 1,4c0,0 0,2 0,3c0,1 0,1 -1,2c-1,1 -2,2 -3,3c0,0 -0.85273,0.1731 -2,1c-1.814,1.30745 -2.15224,0.23463 -4,1c-1.30656,0.54119 -1.69344,1.45881 -3,2c-0.92388,0.38268 -3,0 -3,0c-1,0 -2,1 -3,1c-1,0 -1,1 -2,1c-1,0 -2,0 -3,0c0,0 -1,0 0,0c0,0 2,0 3,0c1,0 2.15224,0.23463 4,1c1.30656,0.5412 2,1 3,1c2,0 2,0 3,0c1,0 2.29289,-0.70711 3,0c0.70711,0.70711 0.29289,1.29289 1,2c0.70711,0.70711 2,0 3,0c0,0 1,0 1,1c0,1 1,1 1,1c1,0 1.4588,0.69344 2,2c0.38268,0.92388 0,2 0,2c0,1 0,2 0,3c0,1 0,1 0,2c0,1 -1.29289,0.29289 -2,1c-0.70711,0.70711 0,2 -1,2c-1,0 -1.07612,-0.38268 -2,0c-1.30656,0.5412 -1,2 -2,2c-1,0 -1,1 -1,1c-1,0 -1.29289,0.29289 -2,1c-0.70711,0.70711 -2,0 -2,0c-1,0 -2,0 -3,0c-1,0 -1,0 -1,0c-1,0 -2,0 -3,0c-1,0 -1,0 -2,0c-1,0 -2,0 -3,0c0,0 -1,0 -2,0c-1,0 -2,0 -2,0c-1,0 -2,0 -3,0c-1,0 -1,0 -2,0c-1,0 -2.29289,0.70711 -3,0c-0.70711,-0.70711 0,-2 0,-3c0,-1 0,-1 0,-2c0,-1 0,-2 0,-3c0,0 1,0 1,-1c0,-1 0,-2 0,-3c0,0 0,-1 0,-2c0,-1 0,-2 0,-2c0,-1 0,-2 0,-3c0,-1 0,-1 0,-2c0,-1 0,-2 0,-3c0,0 0,-1 0,-2c0,-1 0,-2 0,-2c0,-1 0,-2 0,-3c0,-1 0,-1 0,-2c0,-1 0,-2 0,-3c0,0 0,-1 0,-2c0,-1 -0.29289,-1.29289 -1,-2c-0.70711,-0.70711 0,-2 0,-3c0,-1 0,-1 0,-2c0,-1 0,-2 0,-3c0,0 0,-1 0,-2c0,-1 0,-2 0,-2c0,-1 -0.70711,-2.29289 0,-3c0.70711,-0.70711 1,-1 1,-1c1,0 2,0 3,0c0,0 1,0 2,0c1,0 2,0 2,0c1,0 2,0 3,0c1,0 1,0 2,0c1,0 2.29289,0.70711 3,0c0.70711,-0.70711 0,-1 1,-1c1,0 2,0 3,0c0,0 1,0 3,0c1,0 2.15224,0.76537 4,0c1.30656,-0.5412 2,-1 3,-1c2,0 2,0 3,0c1,0 2,0 3,0c0,0 1,0 2,0c0.99999,0 1.99999,0 1.99999,0c1,0 2,0 4,0c0,0 0.29289,0.29289 1,1c0.70711,0.70711 2,0 3,0c0,0 0,1 1,1c0,0 1.29289,-0.70711 2,0c0.70711,0.70711 1,1 1,2c0,0 1,0 1,1c0,1 1.29289,0.29289 2,1c0.70711,0.70711 0,2 0,3c0,1 0.29289,0.29289 1,1c0.70711,0.70711 0,2 0,3c0,1 0,1 0,2c0,1 0,2 0,3c0,0 -0.29289,0.29289 -1,1c-0.70711,0.70711 -1,1 -1,2c0,1 -1,1 -2,1c0,0 0,1 -1,1c-1,0 -1,1 -2,1c-1,0 -0.29289,1.29289 -1,2c-0.70711,0.70711 -2,0 -2,0c-1,0 -2,0 -2,1c0,0 -1.29289,-0.70711 -2,0c-0.70711,0.70711 -1,1 -2,1c0,0 0,1 -1,1c-0.99999,0 -0.99999,1 -1.99999,1c-1,0 -1,0 -1,0c-1,0 -2,0 -2,1c0,1 -1,1 0,1c1,0 2,0 2,0c1,0 2.99999,0 3.99999,0c1,0 3,0 4,0c0,0 1,0 2,0c1,0 2,0 2,0c1,0 2.29289,-0.70711 3,0c0.70711,0.70711 1,1 1,1c0,1 1,1 1,1c1,0 2.29289,-0.70711 3,0c0.70711,0.70711 0,1 1,2c1,1 2,2 2,2c1,0 0.29289,1.29289 1,2c0.70711,0.70711 0.29289,1.29289 1,2c0.70711,0.70711 1,0 1,1c0,1 1,1 1,2c0,1 0,1 0,2c0,1 -1,1 -1,2c0,1 0,1 0,2c0,1 -0.29289,1.29289 -1,2c-0.70711,0.70711 -1,1 -1,1c0,0 -1,0 -1,1c0,1 -0.29289,1.29289 -1,2c-0.70711,0.70711 -1,1 -2,1c0,0 -0.07613,0.61732 -1,1c-1.30656,0.5412 -2.29289,0.29289 -3,1c-0.70711,0.70711 0.70711,1.29289 0,2c-0.70711,0.70711 -2,0 -2,0c-1,0 -2,0 -2,1c0,0 -1.29289,-0.70711 -2,0c-0.70711,0.70711 -1.29289,0.29289 -2,1c-0.70711,0.70711 -0.69344,1.4588 -2,2c-0.92387,0.38268 -2,0 -2,0c-1,0 -1.99999,0 -1.99999,0c-2,0 -2,1 -2,1c-1,0 -2,0 -3,0c-1,0 -0.69344,0.4588 -2,1c-0.92388,0.38268 -2.29289,-0.70711 -3,0c-0.70711,0.70711 0,1 -1,1c-1,0 -1,1 -2,1c-1,0 -1,0 -2,0c-1,0 -2,0 -2,0c-1,0 -1,0 -2,0c-1,0 -1,1 -2,1c-1,0 -1,0 -2,0c-1,0 -2,0 -3,0c0,0 -1,0 -2,0c-1,0 -2,0 -2,0c-1,0 -3,0 -4,0c0,0 -1,0 -2,0c-1,0 -2,0 -2,0c-1,0 -2,0 -3,0c-1,0 -2,0 -4,0c-1,0 -2,0 -3,0c-1,0 -1,-1 -1,-1c0,-1 0,-2 0,-3c0,-1 0,-1 0,-2c0,-1 0,-2 0,-3c0,0 0,-1 0,-2c0,-1 0.29289,-1.29289 1,-2c0.70711,-0.70711 0,-2 0,-3c0,-1 0,-1 0,-2c0,-1 0,-2 0,-3c0,0 0,-1 0,-2c0,-1 0,-2 0,-2c0,-1 0,-2 0,-3c0,-1 1,-1 1,-1c0,-1 0,-2 0,-3c0,-1 0,-1 0,-2c0,-1 0,-2 0,-3c0,0 0,-1 0,-2c0,-1 0,-2 0,-2c0,-1 0,-2 0,-3c0,-1 0,-1 0,-2c0,-1 0,-2 0,-3c0,0 0,-1 0,-2c0,-1 0,-2 0,-2c0,-1 0,-2 0,-3c0,-1 0.70711,-1.29289 0,-2c-0.70711,-0.70711 -0.29289,-1.29289 -1,-2c-0.70711,-0.70711 -1,-1 -1,-1c0,-1 0,-2 0,-3c0,-1 -1,-1 -1,-2c0,-1 0,-2 0,-3c0,0 0,-1 0,-2c0,-1 0,-2 0,-2c0,-1 0.29289,-1.29289 1,-2c0.70711,-0.70711 1,-1 2,-1c1,0 0.29289,-0.29289 1,-1c0.70711,-0.70711 2,0 3,0c1,0 1,0 2,0c1,0 2,0 3,0c0,0 1.29289,-0.70711 2,0c0.70711,0.70711 0.29289,1.29289 1,2c0.70711,0.70711 1,1 1,1c1,0 2,1 2,1c1,1 0.29289,2.29289 1,3c0.70711,0.70711 1,1 1,1c0,1 0,2 0,3c0,1 0,1 0,2c0,1 0,2 0,3c0,0 0,1 0,2c0,1 0,2 0,1l0,-1l0,-1" id="svg_5" stroke="#000" fill="none"/>
 </g>
</svg>